<mxfile host="app.diagrams.net" agent="Mozilla/5.0 (Windows NT 10.0; Win64; x64) AppleWebKit/537.36 (KHTML, like Gecko) Chrome/135.0.0.0 Safari/537.36 Edg/135.0.0.0" version="26.2.14">
  <diagram name="Página-1" id="pzfFOjKIq0o3fieDbZdi">
    <mxGraphModel grid="1" page="1" gridSize="10" guides="1" tooltips="1" connect="1" arrows="1" fold="1" pageScale="1" pageWidth="827" pageHeight="1169" math="0" shadow="0">
      <root>
        <mxCell id="0" />
        <mxCell id="1" parent="0" />
        <mxCell id="7cjEs38gQTCeYO4i3hD5-1" value="RELACIONES" style="swimlane;fontStyle=0;childLayout=stackLayout;horizontal=1;startSize=30;horizontalStack=0;resizeParent=1;resizeParentMax=0;resizeLast=0;collapsible=1;marginBottom=0;whiteSpace=wrap;html=1;" vertex="1" parent="1">
          <mxGeometry x="200" width="140" height="150" as="geometry" />
        </mxCell>
        <mxCell id="7cjEs38gQTCeYO4i3hD5-2" value="Vehículo integra en una venta" style="text;strokeColor=none;fillColor=none;align=left;verticalAlign=middle;spacingLeft=4;spacingRight=4;overflow=hidden;points=[[0,0.5],[1,0.5]];portConstraint=eastwest;rotatable=0;whiteSpace=wrap;html=1;" vertex="1" parent="7cjEs38gQTCeYO4i3hD5-1">
          <mxGeometry y="30" width="140" height="40" as="geometry" />
        </mxCell>
        <mxCell id="7cjEs38gQTCeYO4i3hD5-3" value="Vendedor realiza una venta" style="text;strokeColor=none;fillColor=none;align=left;verticalAlign=middle;spacingLeft=4;spacingRight=4;overflow=hidden;points=[[0,0.5],[1,0.5]];portConstraint=eastwest;rotatable=0;whiteSpace=wrap;html=1;" vertex="1" parent="7cjEs38gQTCeYO4i3hD5-1">
          <mxGeometry y="70" width="140" height="40" as="geometry" />
        </mxCell>
        <mxCell id="7cjEs38gQTCeYO4i3hD5-4" value="Cliente participa en la venta" style="text;strokeColor=none;fillColor=none;align=left;verticalAlign=middle;spacingLeft=4;spacingRight=4;overflow=hidden;points=[[0,0.5],[1,0.5]];portConstraint=eastwest;rotatable=0;whiteSpace=wrap;html=1;" vertex="1" parent="7cjEs38gQTCeYO4i3hD5-1">
          <mxGeometry y="110" width="140" height="40" as="geometry" />
        </mxCell>
        <mxCell id="7cjEs38gQTCeYO4i3hD5-5" value="ENTIDADES" style="swimlane;fontStyle=0;childLayout=stackLayout;horizontal=1;startSize=30;horizontalStack=0;resizeParent=1;resizeParentMax=0;resizeLast=0;collapsible=1;marginBottom=0;whiteSpace=wrap;html=1;" vertex="1" parent="1">
          <mxGeometry width="140" height="150" as="geometry" />
        </mxCell>
        <mxCell id="7cjEs38gQTCeYO4i3hD5-6" value="Vehículo&amp;nbsp;" style="text;strokeColor=none;fillColor=none;align=left;verticalAlign=middle;spacingLeft=4;spacingRight=4;overflow=hidden;points=[[0,0.5],[1,0.5]];portConstraint=eastwest;rotatable=0;whiteSpace=wrap;html=1;" vertex="1" parent="7cjEs38gQTCeYO4i3hD5-5">
          <mxGeometry y="30" width="140" height="30" as="geometry" />
        </mxCell>
        <mxCell id="7cjEs38gQTCeYO4i3hD5-7" value="Cliente" style="text;strokeColor=none;fillColor=none;align=left;verticalAlign=middle;spacingLeft=4;spacingRight=4;overflow=hidden;points=[[0,0.5],[1,0.5]];portConstraint=eastwest;rotatable=0;whiteSpace=wrap;html=1;" vertex="1" parent="7cjEs38gQTCeYO4i3hD5-5">
          <mxGeometry y="60" width="140" height="30" as="geometry" />
        </mxCell>
        <mxCell id="7cjEs38gQTCeYO4i3hD5-8" value="Vendedor" style="text;strokeColor=none;fillColor=none;align=left;verticalAlign=middle;spacingLeft=4;spacingRight=4;overflow=hidden;points=[[0,0.5],[1,0.5]];portConstraint=eastwest;rotatable=0;whiteSpace=wrap;html=1;" vertex="1" parent="7cjEs38gQTCeYO4i3hD5-5">
          <mxGeometry y="90" width="140" height="30" as="geometry" />
        </mxCell>
        <mxCell id="7cjEs38gQTCeYO4i3hD5-9" value="Venta" style="text;strokeColor=none;fillColor=none;align=left;verticalAlign=middle;spacingLeft=4;spacingRight=4;overflow=hidden;points=[[0,0.5],[1,0.5]];portConstraint=eastwest;rotatable=0;whiteSpace=wrap;html=1;" vertex="1" parent="7cjEs38gQTCeYO4i3hD5-5">
          <mxGeometry y="120" width="140" height="30" as="geometry" />
        </mxCell>
        <mxCell id="7cjEs38gQTCeYO4i3hD5-18" style="edgeStyle=orthogonalEdgeStyle;rounded=0;orthogonalLoop=1;jettySize=auto;html=1;" edge="1" parent="1" source="7cjEs38gQTCeYO4i3hD5-10" target="7cjEs38gQTCeYO4i3hD5-17">
          <mxGeometry relative="1" as="geometry" />
        </mxCell>
        <mxCell id="7cjEs38gQTCeYO4i3hD5-10" value="cliente" style="ellipse;whiteSpace=wrap;html=1;" vertex="1" parent="1">
          <mxGeometry x="962" y="315" width="120" height="80" as="geometry" />
        </mxCell>
        <mxCell id="7cjEs38gQTCeYO4i3hD5-15" style="edgeStyle=orthogonalEdgeStyle;rounded=0;orthogonalLoop=1;jettySize=auto;html=1;entryX=0.5;entryY=0;entryDx=0;entryDy=0;" edge="1" parent="1" source="7cjEs38gQTCeYO4i3hD5-11" target="7cjEs38gQTCeYO4i3hD5-14">
          <mxGeometry relative="1" as="geometry" />
        </mxCell>
        <mxCell id="7cjEs38gQTCeYO4i3hD5-11" value="vehículo" style="ellipse;whiteSpace=wrap;html=1;" vertex="1" parent="1">
          <mxGeometry x="610" y="70" width="120" height="80" as="geometry" />
        </mxCell>
        <mxCell id="7cjEs38gQTCeYO4i3hD5-12" value="venta" style="ellipse;whiteSpace=wrap;html=1;" vertex="1" parent="1">
          <mxGeometry x="610" y="315" width="120" height="80" as="geometry" />
        </mxCell>
        <mxCell id="7cjEs38gQTCeYO4i3hD5-22" style="edgeStyle=orthogonalEdgeStyle;rounded=0;orthogonalLoop=1;jettySize=auto;html=1;entryX=0;entryY=0.5;entryDx=0;entryDy=0;" edge="1" parent="1" source="7cjEs38gQTCeYO4i3hD5-13" target="7cjEs38gQTCeYO4i3hD5-21">
          <mxGeometry relative="1" as="geometry" />
        </mxCell>
        <mxCell id="7cjEs38gQTCeYO4i3hD5-13" value="vendedor" style="ellipse;whiteSpace=wrap;html=1;" vertex="1" parent="1">
          <mxGeometry x="250" y="315" width="120" height="80" as="geometry" />
        </mxCell>
        <mxCell id="7cjEs38gQTCeYO4i3hD5-16" style="edgeStyle=orthogonalEdgeStyle;rounded=0;orthogonalLoop=1;jettySize=auto;html=1;entryX=0.5;entryY=0;entryDx=0;entryDy=0;" edge="1" parent="1" source="7cjEs38gQTCeYO4i3hD5-14" target="7cjEs38gQTCeYO4i3hD5-12">
          <mxGeometry relative="1" as="geometry" />
        </mxCell>
        <mxCell id="7cjEs38gQTCeYO4i3hD5-14" value="Integra" style="rhombus;whiteSpace=wrap;html=1;" vertex="1" parent="1">
          <mxGeometry x="630" y="195" width="80" height="50" as="geometry" />
        </mxCell>
        <mxCell id="7cjEs38gQTCeYO4i3hD5-19" style="edgeStyle=orthogonalEdgeStyle;rounded=0;orthogonalLoop=1;jettySize=auto;html=1;" edge="1" parent="1" source="7cjEs38gQTCeYO4i3hD5-17" target="7cjEs38gQTCeYO4i3hD5-12">
          <mxGeometry relative="1" as="geometry" />
        </mxCell>
        <mxCell id="7cjEs38gQTCeYO4i3hD5-17" value="Participa" style="rhombus;whiteSpace=wrap;html=1;" vertex="1" parent="1">
          <mxGeometry x="845" y="325" width="80" height="60" as="geometry" />
        </mxCell>
        <mxCell id="7cjEs38gQTCeYO4i3hD5-23" style="edgeStyle=orthogonalEdgeStyle;rounded=0;orthogonalLoop=1;jettySize=auto;html=1;" edge="1" parent="1" source="7cjEs38gQTCeYO4i3hD5-21" target="7cjEs38gQTCeYO4i3hD5-12">
          <mxGeometry relative="1" as="geometry" />
        </mxCell>
        <mxCell id="7cjEs38gQTCeYO4i3hD5-21" value="Realiza" style="rhombus;whiteSpace=wrap;html=1;" vertex="1" parent="1">
          <mxGeometry x="410" y="315" width="80" height="80" as="geometry" />
        </mxCell>
        <mxCell id="7cjEs38gQTCeYO4i3hD5-24" value="&lt;u&gt;id_vehiculo(PK)&amp;nbsp;&lt;/u&gt;" style="ellipse;whiteSpace=wrap;html=1;" vertex="1" parent="1">
          <mxGeometry x="600" width="120" height="45" as="geometry" />
        </mxCell>
        <mxCell id="7cjEs38gQTCeYO4i3hD5-25" value="marca" style="ellipse;whiteSpace=wrap;html=1;" vertex="1" parent="1">
          <mxGeometry x="720" y="150" width="60" height="40" as="geometry" />
        </mxCell>
        <mxCell id="7cjEs38gQTCeYO4i3hD5-26" value="modelo" style="ellipse;whiteSpace=wrap;html=1;" vertex="1" parent="1">
          <mxGeometry x="760" y="110" width="60" height="40" as="geometry" />
        </mxCell>
        <mxCell id="7cjEs38gQTCeYO4i3hD5-27" value="año" style="ellipse;whiteSpace=wrap;html=1;" vertex="1" parent="1">
          <mxGeometry x="540" y="90" width="50" height="40" as="geometry" />
        </mxCell>
        <mxCell id="7cjEs38gQTCeYO4i3hD5-28" value="tipo" style="ellipse;whiteSpace=wrap;html=1;" vertex="1" parent="1">
          <mxGeometry x="730" y="20" width="50" height="40" as="geometry" />
        </mxCell>
        <mxCell id="7cjEs38gQTCeYO4i3hD5-29" value="precio" style="ellipse;whiteSpace=wrap;html=1;" vertex="1" parent="1">
          <mxGeometry x="750" y="60" width="50" height="40" as="geometry" />
        </mxCell>
        <mxCell id="7cjEs38gQTCeYO4i3hD5-30" value="kilometraje" style="ellipse;whiteSpace=wrap;html=1;" vertex="1" parent="1">
          <mxGeometry x="530" y="35" width="80" height="40" as="geometry" />
        </mxCell>
        <mxCell id="7cjEs38gQTCeYO4i3hD5-31" value="disponible" style="ellipse;whiteSpace=wrap;html=1;" vertex="1" parent="1">
          <mxGeometry x="510" y="140" width="80" height="40" as="geometry" />
        </mxCell>
        <mxCell id="7cjEs38gQTCeYO4i3hD5-32" value="" style="endArrow=none;html=1;rounded=0;" edge="1" parent="1" source="7cjEs38gQTCeYO4i3hD5-31" target="7cjEs38gQTCeYO4i3hD5-11">
          <mxGeometry width="50" height="50" relative="1" as="geometry">
            <mxPoint x="600" y="230" as="sourcePoint" />
            <mxPoint x="700" y="190" as="targetPoint" />
          </mxGeometry>
        </mxCell>
        <mxCell id="7cjEs38gQTCeYO4i3hD5-33" value="" style="endArrow=none;html=1;rounded=0;" edge="1" parent="1" source="7cjEs38gQTCeYO4i3hD5-25" target="7cjEs38gQTCeYO4i3hD5-11">
          <mxGeometry width="50" height="50" relative="1" as="geometry">
            <mxPoint x="610" y="240" as="sourcePoint" />
            <mxPoint x="710" y="200" as="targetPoint" />
          </mxGeometry>
        </mxCell>
        <mxCell id="7cjEs38gQTCeYO4i3hD5-34" value="" style="endArrow=none;html=1;rounded=0;" edge="1" parent="1" source="7cjEs38gQTCeYO4i3hD5-11" target="7cjEs38gQTCeYO4i3hD5-26">
          <mxGeometry width="50" height="50" relative="1" as="geometry">
            <mxPoint x="620" y="250" as="sourcePoint" />
            <mxPoint x="720" y="210" as="targetPoint" />
          </mxGeometry>
        </mxCell>
        <mxCell id="7cjEs38gQTCeYO4i3hD5-35" value="" style="endArrow=none;html=1;rounded=0;" edge="1" parent="1" source="7cjEs38gQTCeYO4i3hD5-29" target="7cjEs38gQTCeYO4i3hD5-11">
          <mxGeometry width="50" height="50" relative="1" as="geometry">
            <mxPoint x="630" y="260" as="sourcePoint" />
            <mxPoint x="730" y="220" as="targetPoint" />
          </mxGeometry>
        </mxCell>
        <mxCell id="7cjEs38gQTCeYO4i3hD5-36" value="" style="endArrow=none;html=1;rounded=0;" edge="1" parent="1" source="7cjEs38gQTCeYO4i3hD5-11" target="7cjEs38gQTCeYO4i3hD5-28">
          <mxGeometry width="50" height="50" relative="1" as="geometry">
            <mxPoint x="640" y="270" as="sourcePoint" />
            <mxPoint x="740" y="230" as="targetPoint" />
          </mxGeometry>
        </mxCell>
        <mxCell id="7cjEs38gQTCeYO4i3hD5-37" value="" style="endArrow=none;html=1;rounded=0;" edge="1" parent="1" source="7cjEs38gQTCeYO4i3hD5-11" target="7cjEs38gQTCeYO4i3hD5-24">
          <mxGeometry width="50" height="50" relative="1" as="geometry">
            <mxPoint x="650" y="280" as="sourcePoint" />
            <mxPoint x="750" y="240" as="targetPoint" />
          </mxGeometry>
        </mxCell>
        <mxCell id="7cjEs38gQTCeYO4i3hD5-38" value="" style="endArrow=none;html=1;rounded=0;" edge="1" parent="1" source="7cjEs38gQTCeYO4i3hD5-11" target="7cjEs38gQTCeYO4i3hD5-30">
          <mxGeometry width="50" height="50" relative="1" as="geometry">
            <mxPoint x="660" y="290" as="sourcePoint" />
            <mxPoint x="760" y="250" as="targetPoint" />
          </mxGeometry>
        </mxCell>
        <mxCell id="7cjEs38gQTCeYO4i3hD5-39" value="" style="endArrow=none;html=1;rounded=0;" edge="1" parent="1" source="7cjEs38gQTCeYO4i3hD5-11" target="7cjEs38gQTCeYO4i3hD5-27">
          <mxGeometry width="50" height="50" relative="1" as="geometry">
            <mxPoint x="670" y="300" as="sourcePoint" />
            <mxPoint x="770" y="260" as="targetPoint" />
          </mxGeometry>
        </mxCell>
        <mxCell id="7cjEs38gQTCeYO4i3hD5-40" value="&lt;u&gt;id_cliente(PK)&lt;/u&gt;" style="ellipse;whiteSpace=wrap;html=1;" vertex="1" parent="1">
          <mxGeometry x="1082" y="280" width="110" height="50" as="geometry" />
        </mxCell>
        <mxCell id="7cjEs38gQTCeYO4i3hD5-41" value="nombre" style="ellipse;whiteSpace=wrap;html=1;" vertex="1" parent="1">
          <mxGeometry x="1022" y="245" width="60" height="35" as="geometry" />
        </mxCell>
        <mxCell id="7cjEs38gQTCeYO4i3hD5-42" value="apellido" style="ellipse;whiteSpace=wrap;html=1;" vertex="1" parent="1">
          <mxGeometry x="1107" y="355" width="60" height="40" as="geometry" />
        </mxCell>
        <mxCell id="7cjEs38gQTCeYO4i3hD5-43" value="email" style="ellipse;whiteSpace=wrap;html=1;" vertex="1" parent="1">
          <mxGeometry x="1065" y="405" width="50" height="40" as="geometry" />
        </mxCell>
        <mxCell id="7cjEs38gQTCeYO4i3hD5-44" value="teléfono" style="ellipse;whiteSpace=wrap;html=1;" vertex="1" parent="1">
          <mxGeometry x="945" y="255" width="70" height="40" as="geometry" />
        </mxCell>
        <mxCell id="7cjEs38gQTCeYO4i3hD5-45" value="dni" style="ellipse;whiteSpace=wrap;html=1;" vertex="1" parent="1">
          <mxGeometry x="995" y="415" width="50" height="40" as="geometry" />
        </mxCell>
        <mxCell id="7cjEs38gQTCeYO4i3hD5-46" value="dirección" style="ellipse;whiteSpace=wrap;html=1;" vertex="1" parent="1">
          <mxGeometry x="915" y="415" width="70" height="40" as="geometry" />
        </mxCell>
        <mxCell id="7cjEs38gQTCeYO4i3hD5-49" value="" style="endArrow=none;html=1;rounded=0;" edge="1" parent="1" source="7cjEs38gQTCeYO4i3hD5-10" target="7cjEs38gQTCeYO4i3hD5-46">
          <mxGeometry width="50" height="50" relative="1" as="geometry">
            <mxPoint x="1025" y="345" as="sourcePoint" />
            <mxPoint x="1075" y="295" as="targetPoint" />
          </mxGeometry>
        </mxCell>
        <mxCell id="7cjEs38gQTCeYO4i3hD5-50" value="" style="endArrow=none;html=1;rounded=0;" edge="1" parent="1" source="7cjEs38gQTCeYO4i3hD5-10" target="7cjEs38gQTCeYO4i3hD5-44">
          <mxGeometry width="50" height="50" relative="1" as="geometry">
            <mxPoint x="1035" y="355" as="sourcePoint" />
            <mxPoint x="1085" y="305" as="targetPoint" />
          </mxGeometry>
        </mxCell>
        <mxCell id="7cjEs38gQTCeYO4i3hD5-51" value="" style="endArrow=none;html=1;rounded=0;" edge="1" parent="1" source="7cjEs38gQTCeYO4i3hD5-10" target="7cjEs38gQTCeYO4i3hD5-41">
          <mxGeometry width="50" height="50" relative="1" as="geometry">
            <mxPoint x="1045" y="365" as="sourcePoint" />
            <mxPoint x="1095" y="315" as="targetPoint" />
          </mxGeometry>
        </mxCell>
        <mxCell id="7cjEs38gQTCeYO4i3hD5-52" value="" style="endArrow=none;html=1;rounded=0;" edge="1" parent="1" source="7cjEs38gQTCeYO4i3hD5-10" target="7cjEs38gQTCeYO4i3hD5-40">
          <mxGeometry width="50" height="50" relative="1" as="geometry">
            <mxPoint x="1055" y="375" as="sourcePoint" />
            <mxPoint x="1105" y="325" as="targetPoint" />
          </mxGeometry>
        </mxCell>
        <mxCell id="7cjEs38gQTCeYO4i3hD5-53" value="" style="endArrow=none;html=1;rounded=0;" edge="1" parent="1" source="7cjEs38gQTCeYO4i3hD5-10" target="7cjEs38gQTCeYO4i3hD5-42">
          <mxGeometry width="50" height="50" relative="1" as="geometry">
            <mxPoint x="1065" y="385" as="sourcePoint" />
            <mxPoint x="1115" y="335" as="targetPoint" />
          </mxGeometry>
        </mxCell>
        <mxCell id="7cjEs38gQTCeYO4i3hD5-54" value="" style="endArrow=none;html=1;rounded=0;" edge="1" parent="1" source="7cjEs38gQTCeYO4i3hD5-43" target="7cjEs38gQTCeYO4i3hD5-10">
          <mxGeometry width="50" height="50" relative="1" as="geometry">
            <mxPoint x="1075" y="395" as="sourcePoint" />
            <mxPoint x="1125" y="345" as="targetPoint" />
          </mxGeometry>
        </mxCell>
        <mxCell id="7cjEs38gQTCeYO4i3hD5-55" value="" style="endArrow=none;html=1;rounded=0;" edge="1" parent="1" source="7cjEs38gQTCeYO4i3hD5-45" target="7cjEs38gQTCeYO4i3hD5-10">
          <mxGeometry width="50" height="50" relative="1" as="geometry">
            <mxPoint x="1085" y="405" as="sourcePoint" />
            <mxPoint x="1135" y="355" as="targetPoint" />
          </mxGeometry>
        </mxCell>
        <mxCell id="7cjEs38gQTCeYO4i3hD5-56" value="&lt;u&gt;id_vendedor(PK)&lt;/u&gt;" style="ellipse;whiteSpace=wrap;html=1;" vertex="1" parent="1">
          <mxGeometry x="140" y="265" width="120" height="50" as="geometry" />
        </mxCell>
        <mxCell id="7cjEs38gQTCeYO4i3hD5-58" value="teléfono" style="ellipse;whiteSpace=wrap;html=1;" vertex="1" parent="1">
          <mxGeometry x="275" y="245" width="70" height="40" as="geometry" />
        </mxCell>
        <mxCell id="7cjEs38gQTCeYO4i3hD5-59" value="nombre" style="ellipse;whiteSpace=wrap;html=1;" vertex="1" parent="1">
          <mxGeometry x="360" y="272.5" width="60" height="35" as="geometry" />
        </mxCell>
        <mxCell id="7cjEs38gQTCeYO4i3hD5-60" value="email" style="ellipse;whiteSpace=wrap;html=1;" vertex="1" parent="1">
          <mxGeometry x="160" y="330" width="50" height="40" as="geometry" />
        </mxCell>
        <mxCell id="7cjEs38gQTCeYO4i3hD5-61" value="apellido" style="ellipse;whiteSpace=wrap;html=1;" vertex="1" parent="1">
          <mxGeometry x="260" y="415" width="60" height="40" as="geometry" />
        </mxCell>
        <mxCell id="7cjEs38gQTCeYO4i3hD5-62" value="dni" style="ellipse;whiteSpace=wrap;html=1;" vertex="1" parent="1">
          <mxGeometry x="190" y="385" width="50" height="40" as="geometry" />
        </mxCell>
        <mxCell id="7cjEs38gQTCeYO4i3hD5-63" value="" style="endArrow=none;html=1;rounded=0;" edge="1" parent="1" source="7cjEs38gQTCeYO4i3hD5-13" target="7cjEs38gQTCeYO4i3hD5-59">
          <mxGeometry width="50" height="50" relative="1" as="geometry">
            <mxPoint x="620" y="345" as="sourcePoint" />
            <mxPoint x="670" y="295" as="targetPoint" />
          </mxGeometry>
        </mxCell>
        <mxCell id="7cjEs38gQTCeYO4i3hD5-64" value="" style="endArrow=none;html=1;rounded=0;" edge="1" parent="1" source="7cjEs38gQTCeYO4i3hD5-58" target="7cjEs38gQTCeYO4i3hD5-13">
          <mxGeometry width="50" height="50" relative="1" as="geometry">
            <mxPoint x="630" y="355" as="sourcePoint" />
            <mxPoint x="680" y="305" as="targetPoint" />
          </mxGeometry>
        </mxCell>
        <mxCell id="7cjEs38gQTCeYO4i3hD5-65" value="" style="endArrow=none;html=1;rounded=0;" edge="1" parent="1" source="7cjEs38gQTCeYO4i3hD5-56" target="7cjEs38gQTCeYO4i3hD5-13">
          <mxGeometry width="50" height="50" relative="1" as="geometry">
            <mxPoint x="640" y="365" as="sourcePoint" />
            <mxPoint x="690" y="315" as="targetPoint" />
          </mxGeometry>
        </mxCell>
        <mxCell id="7cjEs38gQTCeYO4i3hD5-66" value="" style="endArrow=none;html=1;rounded=0;" edge="1" parent="1" source="7cjEs38gQTCeYO4i3hD5-60" target="7cjEs38gQTCeYO4i3hD5-13">
          <mxGeometry width="50" height="50" relative="1" as="geometry">
            <mxPoint x="650" y="375" as="sourcePoint" />
            <mxPoint x="700" y="325" as="targetPoint" />
          </mxGeometry>
        </mxCell>
        <mxCell id="7cjEs38gQTCeYO4i3hD5-67" value="" style="endArrow=none;html=1;rounded=0;" edge="1" parent="1" source="7cjEs38gQTCeYO4i3hD5-62" target="7cjEs38gQTCeYO4i3hD5-13">
          <mxGeometry width="50" height="50" relative="1" as="geometry">
            <mxPoint x="660" y="385" as="sourcePoint" />
            <mxPoint x="710" y="335" as="targetPoint" />
          </mxGeometry>
        </mxCell>
        <mxCell id="7cjEs38gQTCeYO4i3hD5-68" value="" style="endArrow=none;html=1;rounded=0;" edge="1" parent="1" source="7cjEs38gQTCeYO4i3hD5-61" target="7cjEs38gQTCeYO4i3hD5-13">
          <mxGeometry width="50" height="50" relative="1" as="geometry">
            <mxPoint x="670" y="395" as="sourcePoint" />
            <mxPoint x="720" y="345" as="targetPoint" />
          </mxGeometry>
        </mxCell>
        <mxCell id="7cjEs38gQTCeYO4i3hD5-69" value="1.1" style="text;html=1;align=center;verticalAlign=middle;resizable=0;points=[];autosize=1;strokeColor=none;fillColor=none;" vertex="1" parent="1">
          <mxGeometry x="670" y="285" width="40" height="30" as="geometry" />
        </mxCell>
        <mxCell id="7cjEs38gQTCeYO4i3hD5-70" value="1.N" style="text;html=1;align=center;verticalAlign=middle;resizable=0;points=[];autosize=1;strokeColor=none;fillColor=none;" vertex="1" parent="1">
          <mxGeometry x="730" y="323" width="40" height="30" as="geometry" />
        </mxCell>
        <mxCell id="7cjEs38gQTCeYO4i3hD5-71" value="1.N" style="text;html=1;align=center;verticalAlign=middle;resizable=0;points=[];autosize=1;strokeColor=none;fillColor=none;" vertex="1" parent="1">
          <mxGeometry x="570" y="325" width="40" height="30" as="geometry" />
        </mxCell>
        <mxCell id="7cjEs38gQTCeYO4i3hD5-72" value="id_venta" style="ellipse;whiteSpace=wrap;html=1;" vertex="1" parent="1">
          <mxGeometry x="710" y="280" width="70" height="40" as="geometry" />
        </mxCell>
        <mxCell id="7cjEs38gQTCeYO4i3hD5-73" value="&lt;u&gt;id_vehiculo(FK)&amp;nbsp;&lt;/u&gt;" style="ellipse;whiteSpace=wrap;html=1;" vertex="1" parent="1">
          <mxGeometry x="620" y="425" width="120" height="45" as="geometry" />
        </mxCell>
        <mxCell id="7cjEs38gQTCeYO4i3hD5-74" value="&lt;u&gt;id_cliente(FK)&lt;/u&gt;" style="ellipse;whiteSpace=wrap;html=1;" vertex="1" parent="1">
          <mxGeometry x="735" y="375" width="110" height="50" as="geometry" />
        </mxCell>
        <mxCell id="7cjEs38gQTCeYO4i3hD5-75" value="&lt;u&gt;id_vendedor(FK)&lt;/u&gt;" style="ellipse;whiteSpace=wrap;html=1;" vertex="1" parent="1">
          <mxGeometry x="520" y="265" width="120" height="50" as="geometry" />
        </mxCell>
        <mxCell id="7cjEs38gQTCeYO4i3hD5-76" value="fecha_venta" style="ellipse;whiteSpace=wrap;html=1;" vertex="1" parent="1">
          <mxGeometry x="490" y="370" width="90" height="40" as="geometry" />
        </mxCell>
        <mxCell id="7cjEs38gQTCeYO4i3hD5-77" value="precio_final" style="ellipse;whiteSpace=wrap;html=1;" vertex="1" parent="1">
          <mxGeometry x="520" y="415" width="90" height="45" as="geometry" />
        </mxCell>
        <mxCell id="7cjEs38gQTCeYO4i3hD5-78" value="" style="endArrow=none;html=1;rounded=0;" edge="1" parent="1" source="7cjEs38gQTCeYO4i3hD5-75" target="7cjEs38gQTCeYO4i3hD5-12">
          <mxGeometry width="50" height="50" relative="1" as="geometry">
            <mxPoint x="580" y="355" as="sourcePoint" />
            <mxPoint x="630" y="305" as="targetPoint" />
          </mxGeometry>
        </mxCell>
        <mxCell id="7cjEs38gQTCeYO4i3hD5-79" value="" style="endArrow=none;html=1;rounded=0;" edge="1" parent="1" source="7cjEs38gQTCeYO4i3hD5-12" target="7cjEs38gQTCeYO4i3hD5-72">
          <mxGeometry width="50" height="50" relative="1" as="geometry">
            <mxPoint x="590" y="365" as="sourcePoint" />
            <mxPoint x="640" y="315" as="targetPoint" />
          </mxGeometry>
        </mxCell>
        <mxCell id="7cjEs38gQTCeYO4i3hD5-81" value="" style="endArrow=none;html=1;rounded=0;" edge="1" parent="1" source="7cjEs38gQTCeYO4i3hD5-12" target="7cjEs38gQTCeYO4i3hD5-74">
          <mxGeometry width="50" height="50" relative="1" as="geometry">
            <mxPoint x="600" y="375" as="sourcePoint" />
            <mxPoint x="650" y="325" as="targetPoint" />
          </mxGeometry>
        </mxCell>
        <mxCell id="7cjEs38gQTCeYO4i3hD5-82" value="" style="endArrow=none;html=1;rounded=0;" edge="1" parent="1" source="7cjEs38gQTCeYO4i3hD5-73" target="7cjEs38gQTCeYO4i3hD5-12">
          <mxGeometry width="50" height="50" relative="1" as="geometry">
            <mxPoint x="610" y="385" as="sourcePoint" />
            <mxPoint x="660" y="335" as="targetPoint" />
          </mxGeometry>
        </mxCell>
        <mxCell id="7cjEs38gQTCeYO4i3hD5-83" value="" style="endArrow=none;html=1;rounded=0;" edge="1" parent="1" source="7cjEs38gQTCeYO4i3hD5-77" target="7cjEs38gQTCeYO4i3hD5-12">
          <mxGeometry width="50" height="50" relative="1" as="geometry">
            <mxPoint x="620" y="395" as="sourcePoint" />
            <mxPoint x="670" y="345" as="targetPoint" />
          </mxGeometry>
        </mxCell>
        <mxCell id="7cjEs38gQTCeYO4i3hD5-84" value="" style="endArrow=none;html=1;rounded=0;" edge="1" parent="1" source="7cjEs38gQTCeYO4i3hD5-76" target="7cjEs38gQTCeYO4i3hD5-12">
          <mxGeometry width="50" height="50" relative="1" as="geometry">
            <mxPoint x="630" y="405" as="sourcePoint" />
            <mxPoint x="680" y="355" as="targetPoint" />
          </mxGeometry>
        </mxCell>
        <mxCell id="7cjEs38gQTCeYO4i3hD5-85" value="vehículo" style="swimlane;fontStyle=0;childLayout=stackLayout;horizontal=1;startSize=30;horizontalStack=0;resizeParent=1;resizeParentMax=0;resizeLast=0;collapsible=1;marginBottom=0;whiteSpace=wrap;html=1;" vertex="1" parent="1">
          <mxGeometry x="1235" y="570" width="140" height="300" as="geometry" />
        </mxCell>
        <mxCell id="7cjEs38gQTCeYO4i3hD5-86" value="id_vehiculo (PK)" style="text;strokeColor=none;fillColor=none;align=left;verticalAlign=middle;spacingLeft=4;spacingRight=4;overflow=hidden;points=[[0,0.5],[1,0.5]];portConstraint=eastwest;rotatable=0;whiteSpace=wrap;html=1;" vertex="1" parent="7cjEs38gQTCeYO4i3hD5-85">
          <mxGeometry y="30" width="140" height="30" as="geometry" />
        </mxCell>
        <mxCell id="7cjEs38gQTCeYO4i3hD5-87" value="marca" style="text;strokeColor=none;fillColor=none;align=left;verticalAlign=middle;spacingLeft=4;spacingRight=4;overflow=hidden;points=[[0,0.5],[1,0.5]];portConstraint=eastwest;rotatable=0;whiteSpace=wrap;html=1;" vertex="1" parent="7cjEs38gQTCeYO4i3hD5-85">
          <mxGeometry y="60" width="140" height="30" as="geometry" />
        </mxCell>
        <mxCell id="7cjEs38gQTCeYO4i3hD5-89" value="modelo" style="text;strokeColor=none;fillColor=none;align=left;verticalAlign=middle;spacingLeft=4;spacingRight=4;overflow=hidden;points=[[0,0.5],[1,0.5]];portConstraint=eastwest;rotatable=0;whiteSpace=wrap;html=1;" vertex="1" parent="7cjEs38gQTCeYO4i3hD5-85">
          <mxGeometry y="90" width="140" height="30" as="geometry" />
        </mxCell>
        <mxCell id="7cjEs38gQTCeYO4i3hD5-90" value="año" style="text;strokeColor=none;fillColor=none;align=left;verticalAlign=middle;spacingLeft=4;spacingRight=4;overflow=hidden;points=[[0,0.5],[1,0.5]];portConstraint=eastwest;rotatable=0;whiteSpace=wrap;html=1;" vertex="1" parent="7cjEs38gQTCeYO4i3hD5-85">
          <mxGeometry y="120" width="140" height="30" as="geometry" />
        </mxCell>
        <mxCell id="7cjEs38gQTCeYO4i3hD5-91" value="patente" style="text;strokeColor=none;fillColor=none;align=left;verticalAlign=middle;spacingLeft=4;spacingRight=4;overflow=hidden;points=[[0,0.5],[1,0.5]];portConstraint=eastwest;rotatable=0;whiteSpace=wrap;html=1;" vertex="1" parent="7cjEs38gQTCeYO4i3hD5-85">
          <mxGeometry y="150" width="140" height="30" as="geometry" />
        </mxCell>
        <mxCell id="7cjEs38gQTCeYO4i3hD5-92" value="tipo" style="text;strokeColor=none;fillColor=none;align=left;verticalAlign=middle;spacingLeft=4;spacingRight=4;overflow=hidden;points=[[0,0.5],[1,0.5]];portConstraint=eastwest;rotatable=0;whiteSpace=wrap;html=1;" vertex="1" parent="7cjEs38gQTCeYO4i3hD5-85">
          <mxGeometry y="180" width="140" height="30" as="geometry" />
        </mxCell>
        <mxCell id="7cjEs38gQTCeYO4i3hD5-96" value="precio" style="text;strokeColor=none;fillColor=none;align=left;verticalAlign=middle;spacingLeft=4;spacingRight=4;overflow=hidden;points=[[0,0.5],[1,0.5]];portConstraint=eastwest;rotatable=0;whiteSpace=wrap;html=1;" vertex="1" parent="7cjEs38gQTCeYO4i3hD5-85">
          <mxGeometry y="210" width="140" height="30" as="geometry" />
        </mxCell>
        <mxCell id="7cjEs38gQTCeYO4i3hD5-97" value="kilometraje" style="text;strokeColor=none;fillColor=none;align=left;verticalAlign=middle;spacingLeft=4;spacingRight=4;overflow=hidden;points=[[0,0.5],[1,0.5]];portConstraint=eastwest;rotatable=0;whiteSpace=wrap;html=1;" vertex="1" parent="7cjEs38gQTCeYO4i3hD5-85">
          <mxGeometry y="240" width="140" height="30" as="geometry" />
        </mxCell>
        <mxCell id="7cjEs38gQTCeYO4i3hD5-98" value="disponible" style="text;strokeColor=none;fillColor=none;align=left;verticalAlign=middle;spacingLeft=4;spacingRight=4;overflow=hidden;points=[[0,0.5],[1,0.5]];portConstraint=eastwest;rotatable=0;whiteSpace=wrap;html=1;" vertex="1" parent="7cjEs38gQTCeYO4i3hD5-85">
          <mxGeometry y="270" width="140" height="30" as="geometry" />
        </mxCell>
        <mxCell id="7cjEs38gQTCeYO4i3hD5-94" value="patente" style="ellipse;whiteSpace=wrap;html=1;" vertex="1" parent="1">
          <mxGeometry x="580" y="170" width="70" height="40" as="geometry" />
        </mxCell>
        <mxCell id="7cjEs38gQTCeYO4i3hD5-95" value="" style="endArrow=none;html=1;rounded=0;" edge="1" parent="1" source="7cjEs38gQTCeYO4i3hD5-94" target="7cjEs38gQTCeYO4i3hD5-11">
          <mxGeometry width="50" height="50" relative="1" as="geometry">
            <mxPoint x="591" y="157" as="sourcePoint" />
            <mxPoint x="629" y="141" as="targetPoint" />
          </mxGeometry>
        </mxCell>
        <mxCell id="7cjEs38gQTCeYO4i3hD5-99" value="vendedor" style="swimlane;fontStyle=0;childLayout=stackLayout;horizontal=1;startSize=30;horizontalStack=0;resizeParent=1;resizeParentMax=0;resizeLast=0;collapsible=1;marginBottom=0;whiteSpace=wrap;html=1;" vertex="1" parent="1">
          <mxGeometry x="995" y="890" width="140" height="210" as="geometry" />
        </mxCell>
        <mxCell id="7cjEs38gQTCeYO4i3hD5-100" value="id_vendedor (PK)" style="text;strokeColor=none;fillColor=none;align=left;verticalAlign=middle;spacingLeft=4;spacingRight=4;overflow=hidden;points=[[0,0.5],[1,0.5]];portConstraint=eastwest;rotatable=0;whiteSpace=wrap;html=1;" vertex="1" parent="7cjEs38gQTCeYO4i3hD5-99">
          <mxGeometry y="30" width="140" height="30" as="geometry" />
        </mxCell>
        <mxCell id="7cjEs38gQTCeYO4i3hD5-101" value="nombre" style="text;strokeColor=none;fillColor=none;align=left;verticalAlign=middle;spacingLeft=4;spacingRight=4;overflow=hidden;points=[[0,0.5],[1,0.5]];portConstraint=eastwest;rotatable=0;whiteSpace=wrap;html=1;" vertex="1" parent="7cjEs38gQTCeYO4i3hD5-99">
          <mxGeometry y="60" width="140" height="30" as="geometry" />
        </mxCell>
        <mxCell id="7cjEs38gQTCeYO4i3hD5-103" value="apellido" style="text;strokeColor=none;fillColor=none;align=left;verticalAlign=middle;spacingLeft=4;spacingRight=4;overflow=hidden;points=[[0,0.5],[1,0.5]];portConstraint=eastwest;rotatable=0;whiteSpace=wrap;html=1;" vertex="1" parent="7cjEs38gQTCeYO4i3hD5-99">
          <mxGeometry y="90" width="140" height="30" as="geometry" />
        </mxCell>
        <mxCell id="7cjEs38gQTCeYO4i3hD5-104" value="dni" style="text;strokeColor=none;fillColor=none;align=left;verticalAlign=middle;spacingLeft=4;spacingRight=4;overflow=hidden;points=[[0,0.5],[1,0.5]];portConstraint=eastwest;rotatable=0;whiteSpace=wrap;html=1;" vertex="1" parent="7cjEs38gQTCeYO4i3hD5-99">
          <mxGeometry y="120" width="140" height="30" as="geometry" />
        </mxCell>
        <mxCell id="7cjEs38gQTCeYO4i3hD5-105" value="email" style="text;strokeColor=none;fillColor=none;align=left;verticalAlign=middle;spacingLeft=4;spacingRight=4;overflow=hidden;points=[[0,0.5],[1,0.5]];portConstraint=eastwest;rotatable=0;whiteSpace=wrap;html=1;" vertex="1" parent="7cjEs38gQTCeYO4i3hD5-99">
          <mxGeometry y="150" width="140" height="30" as="geometry" />
        </mxCell>
        <mxCell id="7cjEs38gQTCeYO4i3hD5-106" value="teléfono" style="text;strokeColor=none;fillColor=none;align=left;verticalAlign=middle;spacingLeft=4;spacingRight=4;overflow=hidden;points=[[0,0.5],[1,0.5]];portConstraint=eastwest;rotatable=0;whiteSpace=wrap;html=1;" vertex="1" parent="7cjEs38gQTCeYO4i3hD5-99">
          <mxGeometry y="180" width="140" height="30" as="geometry" />
        </mxCell>
        <mxCell id="7cjEs38gQTCeYO4i3hD5-109" value="cliente" style="swimlane;fontStyle=0;childLayout=stackLayout;horizontal=1;startSize=30;horizontalStack=0;resizeParent=1;resizeParentMax=0;resizeLast=0;collapsible=1;marginBottom=0;whiteSpace=wrap;html=1;" vertex="1" parent="1">
          <mxGeometry x="1480" y="890" width="140" height="240" as="geometry" />
        </mxCell>
        <mxCell id="7cjEs38gQTCeYO4i3hD5-110" value="id_cliente (PK)" style="text;strokeColor=none;fillColor=none;align=left;verticalAlign=middle;spacingLeft=4;spacingRight=4;overflow=hidden;points=[[0,0.5],[1,0.5]];portConstraint=eastwest;rotatable=0;whiteSpace=wrap;html=1;" vertex="1" parent="7cjEs38gQTCeYO4i3hD5-109">
          <mxGeometry y="30" width="140" height="30" as="geometry" />
        </mxCell>
        <mxCell id="7cjEs38gQTCeYO4i3hD5-111" value="dni" style="text;strokeColor=none;fillColor=none;align=left;verticalAlign=middle;spacingLeft=4;spacingRight=4;overflow=hidden;points=[[0,0.5],[1,0.5]];portConstraint=eastwest;rotatable=0;whiteSpace=wrap;html=1;" vertex="1" parent="7cjEs38gQTCeYO4i3hD5-109">
          <mxGeometry y="60" width="140" height="30" as="geometry" />
        </mxCell>
        <mxCell id="7cjEs38gQTCeYO4i3hD5-112" value="nombre" style="text;strokeColor=none;fillColor=none;align=left;verticalAlign=middle;spacingLeft=4;spacingRight=4;overflow=hidden;points=[[0,0.5],[1,0.5]];portConstraint=eastwest;rotatable=0;whiteSpace=wrap;html=1;" vertex="1" parent="7cjEs38gQTCeYO4i3hD5-109">
          <mxGeometry y="90" width="140" height="30" as="geometry" />
        </mxCell>
        <mxCell id="7cjEs38gQTCeYO4i3hD5-113" value="apellido" style="text;strokeColor=none;fillColor=none;align=left;verticalAlign=middle;spacingLeft=4;spacingRight=4;overflow=hidden;points=[[0,0.5],[1,0.5]];portConstraint=eastwest;rotatable=0;whiteSpace=wrap;html=1;" vertex="1" parent="7cjEs38gQTCeYO4i3hD5-109">
          <mxGeometry y="120" width="140" height="30" as="geometry" />
        </mxCell>
        <mxCell id="7cjEs38gQTCeYO4i3hD5-114" value="email" style="text;strokeColor=none;fillColor=none;align=left;verticalAlign=middle;spacingLeft=4;spacingRight=4;overflow=hidden;points=[[0,0.5],[1,0.5]];portConstraint=eastwest;rotatable=0;whiteSpace=wrap;html=1;" vertex="1" parent="7cjEs38gQTCeYO4i3hD5-109">
          <mxGeometry y="150" width="140" height="30" as="geometry" />
        </mxCell>
        <mxCell id="7cjEs38gQTCeYO4i3hD5-115" value="teléfono" style="text;strokeColor=none;fillColor=none;align=left;verticalAlign=middle;spacingLeft=4;spacingRight=4;overflow=hidden;points=[[0,0.5],[1,0.5]];portConstraint=eastwest;rotatable=0;whiteSpace=wrap;html=1;" vertex="1" parent="7cjEs38gQTCeYO4i3hD5-109">
          <mxGeometry y="180" width="140" height="30" as="geometry" />
        </mxCell>
        <mxCell id="7cjEs38gQTCeYO4i3hD5-116" value="dirección" style="text;strokeColor=none;fillColor=none;align=left;verticalAlign=middle;spacingLeft=4;spacingRight=4;overflow=hidden;points=[[0,0.5],[1,0.5]];portConstraint=eastwest;rotatable=0;whiteSpace=wrap;html=1;" vertex="1" parent="7cjEs38gQTCeYO4i3hD5-109">
          <mxGeometry y="210" width="140" height="30" as="geometry" />
        </mxCell>
        <mxCell id="7cjEs38gQTCeYO4i3hD5-117" value="List" style="swimlane;fontStyle=0;childLayout=stackLayout;horizontal=1;startSize=30;horizontalStack=0;resizeParent=1;resizeParentMax=0;resizeLast=0;collapsible=1;marginBottom=0;whiteSpace=wrap;html=1;" vertex="1" parent="1">
          <mxGeometry x="1235" y="890" width="140" height="210" as="geometry" />
        </mxCell>
        <mxCell id="7cjEs38gQTCeYO4i3hD5-118" value="id_venta (PK)" style="text;strokeColor=none;fillColor=none;align=left;verticalAlign=middle;spacingLeft=4;spacingRight=4;overflow=hidden;points=[[0,0.5],[1,0.5]];portConstraint=eastwest;rotatable=0;whiteSpace=wrap;html=1;" vertex="1" parent="7cjEs38gQTCeYO4i3hD5-117">
          <mxGeometry y="30" width="140" height="30" as="geometry" />
        </mxCell>
        <mxCell id="7cjEs38gQTCeYO4i3hD5-123" value="&lt;u style=&quot;text-align: center;&quot;&gt;id_vehiculo(FK)&amp;nbsp;&lt;/u&gt;" style="text;strokeColor=none;fillColor=none;align=left;verticalAlign=middle;spacingLeft=4;spacingRight=4;overflow=hidden;points=[[0,0.5],[1,0.5]];portConstraint=eastwest;rotatable=0;whiteSpace=wrap;html=1;" vertex="1" parent="7cjEs38gQTCeYO4i3hD5-117">
          <mxGeometry y="60" width="140" height="30" as="geometry" />
        </mxCell>
        <mxCell id="7cjEs38gQTCeYO4i3hD5-119" value="id_cliente (FK)" style="text;strokeColor=none;fillColor=none;align=left;verticalAlign=middle;spacingLeft=4;spacingRight=4;overflow=hidden;points=[[0,0.5],[1,0.5]];portConstraint=eastwest;rotatable=0;whiteSpace=wrap;html=1;" vertex="1" parent="7cjEs38gQTCeYO4i3hD5-117">
          <mxGeometry y="90" width="140" height="30" as="geometry" />
        </mxCell>
        <mxCell id="7cjEs38gQTCeYO4i3hD5-120" value="id_vendedor (FK)" style="text;strokeColor=none;fillColor=none;align=left;verticalAlign=middle;spacingLeft=4;spacingRight=4;overflow=hidden;points=[[0,0.5],[1,0.5]];portConstraint=eastwest;rotatable=0;whiteSpace=wrap;html=1;" vertex="1" parent="7cjEs38gQTCeYO4i3hD5-117">
          <mxGeometry y="120" width="140" height="30" as="geometry" />
        </mxCell>
        <mxCell id="7cjEs38gQTCeYO4i3hD5-127" value="fecha_venta" style="text;strokeColor=none;fillColor=none;align=left;verticalAlign=middle;spacingLeft=4;spacingRight=4;overflow=hidden;points=[[0,0.5],[1,0.5]];portConstraint=eastwest;rotatable=0;whiteSpace=wrap;html=1;" vertex="1" parent="7cjEs38gQTCeYO4i3hD5-117">
          <mxGeometry y="150" width="140" height="30" as="geometry" />
        </mxCell>
        <mxCell id="7cjEs38gQTCeYO4i3hD5-128" value="precio_final" style="text;strokeColor=none;fillColor=none;align=left;verticalAlign=middle;spacingLeft=4;spacingRight=4;overflow=hidden;points=[[0,0.5],[1,0.5]];portConstraint=eastwest;rotatable=0;whiteSpace=wrap;html=1;" vertex="1" parent="7cjEs38gQTCeYO4i3hD5-117">
          <mxGeometry y="180" width="140" height="30" as="geometry" />
        </mxCell>
        <mxCell id="7cjEs38gQTCeYO4i3hD5-122" style="edgeStyle=orthogonalEdgeStyle;rounded=0;orthogonalLoop=1;jettySize=auto;html=1;exitX=0;exitY=0.5;exitDx=0;exitDy=0;entryX=0;entryY=0.5;entryDx=0;entryDy=0;startArrow=ERmany;startFill=0;endArrow=ERmany;endFill=0;" edge="1" parent="1" source="7cjEs38gQTCeYO4i3hD5-86" target="7cjEs38gQTCeYO4i3hD5-123">
          <mxGeometry relative="1" as="geometry">
            <mxPoint x="1005" y="575" as="sourcePoint" />
            <mxPoint x="865" y="725" as="targetPoint" />
          </mxGeometry>
        </mxCell>
        <mxCell id="7cjEs38gQTCeYO4i3hD5-126" style="edgeStyle=orthogonalEdgeStyle;rounded=0;orthogonalLoop=1;jettySize=auto;html=1;exitX=0;exitY=0.5;exitDx=0;exitDy=0;entryX=1;entryY=0.5;entryDx=0;entryDy=0;startArrow=ERmany;startFill=0;endArrow=ERmany;endFill=0;" edge="1" parent="1" source="7cjEs38gQTCeYO4i3hD5-110" target="7cjEs38gQTCeYO4i3hD5-119">
          <mxGeometry relative="1" as="geometry">
            <mxPoint x="995" y="565" as="sourcePoint" />
            <mxPoint x="855" y="715" as="targetPoint" />
          </mxGeometry>
        </mxCell>
        <mxCell id="7cjEs38gQTCeYO4i3hD5-130" style="edgeStyle=orthogonalEdgeStyle;rounded=0;orthogonalLoop=1;jettySize=auto;html=1;exitX=0;exitY=0.5;exitDx=0;exitDy=0;entryX=1;entryY=0.5;entryDx=0;entryDy=0;startArrow=ERmany;startFill=0;endArrow=ERmany;endFill=0;" edge="1" parent="1" source="7cjEs38gQTCeYO4i3hD5-120" target="7cjEs38gQTCeYO4i3hD5-100">
          <mxGeometry relative="1" as="geometry">
            <mxPoint x="995" y="565" as="sourcePoint" />
            <mxPoint x="855" y="715" as="targetPoint" />
          </mxGeometry>
        </mxCell>
        <mxCell id="7cjEs38gQTCeYO4i3hD5-131" value="&lt;div&gt;&lt;font style=&quot;font-size: 14px;&quot;&gt;VEHICULO (&lt;/font&gt;&lt;/div&gt;&lt;div&gt;&lt;font style=&quot;font-size: 14px;&quot;&gt;&amp;nbsp; &amp;nbsp; id_vehiculo INT PRIMARY KEY,&lt;/font&gt;&lt;/div&gt;&lt;div&gt;&lt;font style=&quot;font-size: 14px;&quot;&gt;&amp;nbsp; &amp;nbsp; marca VARCHAR(50),&lt;/font&gt;&lt;/div&gt;&lt;div&gt;&lt;font style=&quot;font-size: 14px;&quot;&gt;&amp;nbsp; &amp;nbsp; modelo VARCHAR(50),&lt;/font&gt;&lt;/div&gt;&lt;div&gt;&lt;font style=&quot;font-size: 14px;&quot;&gt;&amp;nbsp; &amp;nbsp; año INT,&lt;/font&gt;&lt;/div&gt;&lt;div&gt;&lt;font style=&quot;font-size: 14px;&quot;&gt;&amp;nbsp; &amp;nbsp; tipo VARCHAR(10), &lt;span style=&quot;white-space: pre;&quot;&gt;&#x9;&lt;/span&gt;&lt;span style=&quot;white-space: pre;&quot;&gt;&#x9;&lt;/span&gt;-- (nuevo o usado)&lt;/font&gt;&lt;/div&gt;&lt;div&gt;&lt;font style=&quot;font-size: 14px;&quot;&gt;&amp;nbsp; &amp;nbsp; precio DECIMAL(10, 2),&lt;/font&gt;&lt;/div&gt;&lt;div&gt;&lt;font style=&quot;font-size: 14px;&quot;&gt;&amp;nbsp; &amp;nbsp; kilometraje INT, &lt;span style=&quot;white-space: pre;&quot;&gt;&#x9;&lt;/span&gt;&lt;span style=&quot;white-space: pre;&quot;&gt;&#x9;&lt;/span&gt;&lt;span style=&quot;white-space: pre;&quot;&gt;&#x9;&lt;/span&gt;-- (null si es nuevo)&lt;/font&gt;&lt;/div&gt;&lt;div&gt;&lt;font style=&quot;font-size: 14px;&quot;&gt;&amp;nbsp; &amp;nbsp; disponible BOOLEAN&lt;/font&gt;&lt;/div&gt;&lt;div&gt;&lt;font style=&quot;font-size: 14px;&quot;&gt;)&lt;/font&gt;&lt;/div&gt;&lt;div&gt;&lt;font style=&quot;font-size: 14px;&quot;&gt;&lt;br&gt;&lt;/font&gt;&lt;/div&gt;&lt;div&gt;&lt;font style=&quot;font-size: 14px;&quot;&gt;CLIENTE (&lt;/font&gt;&lt;/div&gt;&lt;div&gt;&lt;font style=&quot;font-size: 14px;&quot;&gt;&amp;nbsp; &amp;nbsp; id_cliente INT PRIMARY KEY,&lt;/font&gt;&lt;/div&gt;&lt;div&gt;&lt;font style=&quot;font-size: 14px;&quot;&gt;&amp;nbsp; &amp;nbsp; nombre VARCHAR(50),&lt;/font&gt;&lt;/div&gt;&lt;div&gt;&lt;font style=&quot;font-size: 14px;&quot;&gt;&amp;nbsp; &amp;nbsp; apellido VARCHAR(50),&lt;/font&gt;&lt;/div&gt;&lt;div&gt;&lt;font style=&quot;font-size: 14px;&quot;&gt;&amp;nbsp; &amp;nbsp; email VARCHAR(100),&lt;/font&gt;&lt;/div&gt;&lt;div&gt;&lt;font style=&quot;font-size: 14px;&quot;&gt;&amp;nbsp; &amp;nbsp; telefono VARCHAR(20),&lt;/font&gt;&lt;/div&gt;&lt;div&gt;&lt;font style=&quot;font-size: 14px;&quot;&gt;&amp;nbsp; &amp;nbsp; direccion VARCHAR(100)&lt;/font&gt;&lt;/div&gt;&lt;div&gt;&lt;font style=&quot;font-size: 14px;&quot;&gt;)&lt;/font&gt;&lt;/div&gt;&lt;div&gt;&lt;font style=&quot;font-size: 14px;&quot;&gt;&lt;br&gt;&lt;/font&gt;&lt;/div&gt;&lt;div&gt;&lt;font style=&quot;font-size: 14px;&quot;&gt;VENDEDOR (&lt;/font&gt;&lt;/div&gt;&lt;div&gt;&lt;font style=&quot;font-size: 14px;&quot;&gt;&amp;nbsp; &amp;nbsp; id_vendedor INT PRIMARY KEY,&lt;/font&gt;&lt;/div&gt;&lt;div&gt;&lt;font style=&quot;font-size: 14px;&quot;&gt;&amp;nbsp; &amp;nbsp; nombre VARCHAR(50),&lt;/font&gt;&lt;/div&gt;&lt;div&gt;&lt;font style=&quot;font-size: 14px;&quot;&gt;&amp;nbsp; &amp;nbsp; apellido VARCHAR(50),&lt;/font&gt;&lt;/div&gt;&lt;div&gt;&lt;font style=&quot;font-size: 14px;&quot;&gt;&amp;nbsp; &amp;nbsp; email VARCHAR(100),&lt;/font&gt;&lt;/div&gt;&lt;div&gt;&lt;font style=&quot;font-size: 14px;&quot;&gt;&amp;nbsp; &amp;nbsp; telefono VARCHAR(20)&lt;/font&gt;&lt;/div&gt;&lt;div&gt;&lt;font style=&quot;font-size: 14px;&quot;&gt;)&lt;/font&gt;&lt;/div&gt;&lt;div&gt;&lt;font style=&quot;font-size: 14px;&quot;&gt;&lt;br&gt;&lt;/font&gt;&lt;/div&gt;&lt;div&gt;&lt;font style=&quot;font-size: 14px;&quot;&gt;VENTA (&lt;/font&gt;&lt;/div&gt;&lt;div&gt;&lt;font style=&quot;font-size: 14px;&quot;&gt;&amp;nbsp; &amp;nbsp; id_venta INT PRIMARY KEY,&lt;/font&gt;&lt;/div&gt;&lt;div&gt;&lt;font style=&quot;font-size: 14px;&quot;&gt;&amp;nbsp; &amp;nbsp; id_vehiculo INT,&lt;/font&gt;&lt;/div&gt;&lt;div&gt;&lt;font style=&quot;font-size: 14px;&quot;&gt;&amp;nbsp; &amp;nbsp; id_cliente INT,&lt;/font&gt;&lt;/div&gt;&lt;div&gt;&lt;font style=&quot;font-size: 14px;&quot;&gt;&amp;nbsp; &amp;nbsp; id_vendedor INT,&lt;/font&gt;&lt;/div&gt;&lt;div&gt;&lt;font style=&quot;font-size: 14px;&quot;&gt;&amp;nbsp; &amp;nbsp; fecha_venta DATE,&lt;/font&gt;&lt;/div&gt;&lt;div&gt;&lt;font style=&quot;font-size: 14px;&quot;&gt;&amp;nbsp; &amp;nbsp; precio_final DECIMAL(10, 2),&lt;/font&gt;&lt;/div&gt;&lt;div&gt;&lt;font style=&quot;font-size: 14px;&quot;&gt;&amp;nbsp; &amp;nbsp; FOREIGN KEY (id_vehiculo) REFERENCES VEHICULO(id_vehiculo),&lt;/font&gt;&lt;/div&gt;&lt;div&gt;&lt;font style=&quot;font-size: 14px;&quot;&gt;&amp;nbsp; &amp;nbsp; FOREIGN KEY (id_cliente) REFERENCES CLIENTE(id_cliente),&lt;/font&gt;&lt;/div&gt;&lt;div&gt;&lt;font style=&quot;font-size: 14px;&quot;&gt;&amp;nbsp; &amp;nbsp; FOREIGN KEY (id_vendedor) REFERENCES VENDEDOR(id_vendedor)&lt;/font&gt;&lt;/div&gt;&lt;div&gt;&lt;font style=&quot;font-size: 14px;&quot;&gt;)&lt;/font&gt;&lt;/div&gt;&lt;div&gt;&lt;br&gt;&lt;/div&gt;" style="text;html=1;align=left;verticalAlign=middle;resizable=0;points=[];autosize=1;strokeColor=none;fillColor=none;fontSize=13;" vertex="1" parent="1">
          <mxGeometry x="40" y="480" width="490" height="680" as="geometry" />
        </mxCell>
        <mxCell id="7cjEs38gQTCeYO4i3hD5-135" value="&lt;span style=&quot;font-size: 18px;&quot;&gt;DER&lt;/span&gt;" style="text;html=1;align=center;verticalAlign=middle;resizable=0;points=[];autosize=1;strokeColor=none;fillColor=none;" vertex="1" parent="1">
          <mxGeometry x="890" y="53" width="60" height="40" as="geometry" />
        </mxCell>
        <mxCell id="7cjEs38gQTCeYO4i3hD5-136" value="&lt;span style=&quot;font-size: 18px;&quot;&gt;MRL&lt;/span&gt;" style="text;html=1;align=center;verticalAlign=middle;resizable=0;points=[];autosize=1;strokeColor=none;fillColor=none;" vertex="1" parent="1">
          <mxGeometry x="1065" y="660" width="60" height="40" as="geometry" />
        </mxCell>
      </root>
    </mxGraphModel>
  </diagram>
</mxfile>
